<?xml version="1.0" encoding="UTF-8"?>
<svg width="29px" height="29px" viewBox="0 0 29 29" version="1.1" xmlns="http://www.w3.org/2000/svg" xmlns:xlink="http://www.w3.org/1999/xlink">
    <!-- Generator: sketchtool 49.1 (51147) - http://www.bohemiancoding.com/sketch -->
    <title>66FC5DE8-B6B7-496C-9624-DA338F40195D</title>
    <desc>Created with sketchtool.</desc>
    <defs></defs>
    <g id="Page-1" stroke="none" stroke-width="1" fill="none" fill-rule="evenodd">
        <g id="00_typographic_02" transform="translate(-998.000000, -7961.000000)" fill="#052D63" fill-rule="nonzero">
            <g id="file2" transform="translate(991.000000, 7961.000000)">
                <g id="file-copy" transform="translate(7.000000, 0.000000)">
                    <path d="M28.9921458,13.2542083 C28.9885208,13.1992292 28.97825,13.1466667 28.960125,13.0947083 C28.9534792,13.075375 28.9486458,13.0566458 28.9401875,13.0379167 C28.9111875,12.9750833 28.8743333,12.915875 28.8235833,12.8657292 C28.8229792,12.865125 28.8229792,12.865125 28.8229792,12.865125 L25.375,9.41654167 L25.375,6.04166667 C25.375,6.028375 25.3683542,6.01689583 25.3671458,6.00360417 C25.3635208,5.9504375 25.35325,5.89908333 25.3363333,5.84833333 C25.3296875,5.829 25.3248542,5.81027083 25.3157917,5.79154167 C25.2861875,5.7275 25.2493333,5.66647917 25.197375,5.61452083 L19.759875,0.177020833 C19.7079167,0.1250625 19.6462917,0.0876041667 19.58225,0.058 C19.5647292,0.0501458333 19.5466042,0.0447083333 19.527875,0.0386666667 C19.4759167,0.0205416667 19.42275,0.0102708333 19.3677708,0.00664583333 C19.3562917,0.00604166667 19.3454167,0 19.3333333,0 L4.22916667,0 C3.89566667,0 3.625,0.270666667 3.625,0.604166667 L3.625,9.41654167 L0.177020833,12.8645208 C0.177020833,12.8645208 0.176416667,12.865125 0.1758125,12.8657292 C0.1250625,12.9164792 0.0888125,12.9756875 0.0598125,13.0379167 C0.0513541667,13.0566458 0.0465208333,13.075375 0.039875,13.0947083 C0.02175,13.1466667 0.010875,13.1992292 0.00785416667,13.2542083 C0.00664583333,13.2675 0,13.278375 0,13.2916667 L0,24.7708333 C0,25.1043333 0.270666667,25.375 0.604166667,25.375 L3.625,25.375 L3.625,28.3958333 C3.625,28.7293333 3.89566667,29 4.22916667,29 L24.7708333,29 C25.1043333,29 25.375,28.7293333 25.375,28.3958333 L25.375,25.375 L28.3958333,25.375 C28.7293333,25.375 29,25.1043333 29,24.7708333 L29,13.2916667 C29,13.278375 28.9933542,13.2675 28.9921458,13.2542083 Z M26.937375,12.6875 L25.375,12.6875 L25.375,11.125125 L26.937375,12.6875 Z M23.312375,5.4375 L19.9375,5.4375 L19.9375,2.062625 L23.312375,5.4375 Z M4.83333333,1.20833333 L18.7291667,1.20833333 L18.7291667,6.04166667 C18.7291667,6.37516667 18.9998333,6.64583333 19.3333333,6.64583333 L24.1666667,6.64583333 L24.1666667,9.66666667 L24.1666667,12.6875 L4.83333333,12.6875 L4.83333333,9.66666667 L4.83333333,1.20833333 Z M3.625,11.125125 L3.625,12.6875 L2.062625,12.6875 L3.625,11.125125 Z M24.1666667,27.7916667 L4.83333333,27.7916667 L4.83333333,25.375 L24.1666667,25.375 L24.1666667,27.7916667 Z M27.7916667,24.1666667 L1.20833333,24.1666667 L1.20833333,13.8958333 L4.22916667,13.8958333 L24.7708333,13.8958333 L27.7916667,13.8958333 L27.7916667,24.1666667 Z" id="Shape"></path>
                </g>
            </g>
        </g>
    </g>
</svg>