<?xml version="1.0" encoding="UTF-8"?>
<svg width="36px" height="32px" viewBox="0 0 36 32" version="1.1" xmlns="http://www.w3.org/2000/svg" xmlns:xlink="http://www.w3.org/1999/xlink">
    <!-- Generator: sketchtool 49.1 (51147) - http://www.bohemiancoding.com/sketch -->
    <title>44905653-C83A-4EE8-BAF9-A922D9480C4F</title>
    <desc>Created with sketchtool.</desc>
    <defs></defs>
    <g id="Page-1" stroke="none" stroke-width="1" fill="none" fill-rule="evenodd">
        <g id="00_typographic_02" transform="translate(-622.000000, -8362.000000)" fill="#052D63" fill-rule="nonzero">
            <g id="noun_106381_cc-(1)" transform="translate(622.000000, 8360.000000)">
                <g id="Group">
                    <g id="Rectangle-path">
                        <rect x="15.6248" y="26.6891905" width="1.2384" height="7.00885714"></rect>
                        <g transform="translate(0.000000, 14.571429)">
                            <rect x="24.7212" y="0.316928571" width="11.2788" height="2.04040476"></rect>
                            <rect x="0" y="0.952809524" width="4.2536" height="1"></rect>
                        </g>
                    </g>
                    <rect id="Rectangle-path" transform="translate(9.167460, 3.548461) rotate(-120.080327) translate(-9.167460, -3.548461) " x="7.6307022" y="3.27059903" width="3.07351629" height="1"></rect>
                    <rect id="Rectangle-path" transform="translate(23.317782, 28.268028) rotate(-120.085285) translate(-23.317782, -28.268028) " x="19.2422885" y="27.5307372" width="8.15098657" height="1.47458137"></rect>
                    <rect id="Rectangle-path" transform="translate(4.028276, 23.068049) rotate(-120.046921) translate(-4.028276, -23.068049) " x="3.58068369" y="20.5367138" width="1" height="5.06267039"></rect>
                    <rect id="Rectangle-path" transform="translate(3.995909, 8.805062) rotate(-150.179079) translate(-3.995909, -8.805062) " x="2.18807503" y="8.47800875" width="3.61566698" height="1"></rect>
                    <rect id="Rectangle-path" transform="translate(28.490897, 23.012312) rotate(-150.179079) translate(-28.490897, -23.012312) " x="23.6964086" y="22.1448912" width="9.58897763" height="1.73484166"></rect>
                    <rect id="Rectangle-path" transform="translate(9.223837, 28.306157) rotate(-150.184050) translate(-9.223837, -28.306157) " x="8.69745298" y="25.3274044" width="1.05276715" height="5.95750459"></rect>
                </g>
            </g>
        </g>
    </g>
</svg>